<svg width="654" height="173" fill="none" xmlns="http://www.w3.org/2000/svg"><path d="M107.571 81.5483c5.817-3.6825 10.853-8.7884 14.534-15.164 12.15-21.0449 4.94-47.9549-16.105-60.1051C84.9548-5.8711 58.0448 1.3394 45.8945 22.3843c-3.6809 6.3755-5.5849 13.2894-5.8657 20.168 13.571-2.5304 28.0779-.4154 40.9706 7.0282 12.8928 7.4436 21.9776 18.9497 26.5716 31.9678ZM40.7726 52.599c-13.4389 2.8129-25.669 11.117-33.0743 23.9434-13.8071 23.9146-5.6134 54.4946 18.3013 68.3016 23.9146 13.807 54.4941 5.613 68.3012-18.302 7.4052-12.826 8.4822-27.5698 4.1984-40.6147-11.6639 4.0652-24.963 3.2227-36.4995-3.4379C50.4632 75.8288 43.084 64.7328 40.7726 52.599ZM202.29 139.154c-9.221 0-17.093-1.686-23.615-5.06-6.522-3.373-12.314-8.265-17.374-14.675l10.795-10.795c3.711 5.173 7.984 9.109 12.82 11.807 4.835 2.587 10.795 3.88 17.88 3.88 6.972 0 12.538-1.518 16.699-4.554 4.273-3.036 6.41-7.197 6.41-12.482 0-4.386-1.012-7.9279-3.037-10.6267-2.024-2.6988-4.779-4.8916-8.265-6.5783-3.373-1.7992-7.084-3.3735-11.133-4.7229a532.8085 532.8085 0 0 1-12.144-4.5542c-4.049-1.6868-7.76-3.7109-11.133-6.0723-3.374-2.4739-6.129-5.6787-8.265-9.6145-2.024-3.9357-3.036-8.8835-3.036-14.8433 0-6.6345 1.574-12.257 4.722-16.8675 3.262-4.7228 7.647-8.3212 13.157-10.7951 5.623-2.5864 11.92-3.8795 18.892-3.8795 7.647 0 14.507 1.518 20.579 4.5542 6.072 2.9237 11.02 6.8032 14.844 11.6385L230.29 45.7086c-3.486-4.0482-7.253-7.0843-11.301-9.1084-3.936-2.0241-8.49-3.0362-13.663-3.0362-6.297 0-11.302 1.4056-15.012 4.2169-3.711 2.6988-5.567 6.5221-5.567 11.4699 0 3.9357 1.012 7.1405 3.036 9.6144 2.137 2.3614 4.892 4.3855 8.266 6.0723 3.373 1.6867 7.084 3.261 11.132 4.7229a161.6264 161.6264 0 0 1 12.314 4.5542c4.048 1.6867 7.759 3.8233 11.133 6.4096 3.373 2.5863 6.072 5.9598 8.096 10.1205 2.137 4.0482 3.205 9.1646 3.205 15.3493 0 10.345-3.599 18.442-10.795 24.289-7.085 5.848-16.7 8.771-28.844 8.771ZM255.708 137.468V57.3471h15.181v80.1209h-15.181ZM382.509 132.407c3.373 2.137 7.028 3.824 10.964 5.061 4.048 1.124 8.321 1.686 12.819 1.686 8.996 0 16.137-2.192 21.422-6.578 5.398-4.386 8.097-10.345 8.097-17.88 0-4.947-1.069-8.939-3.205-11.975-2.024-3.0366-4.667-5.4542-7.928-7.2534s-6.691-3.2049-10.289-4.2169a964.2814 964.2814 0 0 0-10.458-3.2048c-3.262-1.0121-5.904-2.249-7.928-3.7109-2.024-1.4618-3.036-3.5421-3.036-6.2409s1.124-4.7791 3.373-6.241c2.362-1.5743 5.735-2.3614 10.121-2.3614 4.16 0 7.871.7871 11.133 2.3614 3.373 1.5743 6.184 3.8233 8.433 6.747l9.784-9.7831c-3.149-4.3855-7.197-7.6466-12.145-9.7831-4.836-2.249-10.402-3.3735-16.699-3.3735-5.96 0-11.077.9558-15.35 2.8674-4.161 1.9117-7.422 4.6667-9.783 8.2651-2.362 3.4859-3.542 7.6466-3.542 12.4819 0 4.8353 1.012 8.7149 3.036 11.6385 2.136 2.9237 4.835 5.229 8.096 6.9157 3.261 1.6868 6.691 3.092 10.29 4.217 3.711 1.012 7.197 2.08 10.458 3.205 3.261 1.012 5.903 2.361 7.928 4.048 2.136 1.574 3.204 3.823 3.204 6.747s-1.293 5.229-3.879 6.916c-2.587 1.574-6.241 2.361-10.964 2.361-4.723 0-8.996-.843-12.82-2.53-3.823-1.799-7.197-4.498-10.12-8.097l-9.784 9.784c2.474 3.036 5.398 5.678 8.772 7.927ZM479.963 139.154c-6.522 0-12.426-1.462-17.711-4.385-5.173-3.036-9.221-7.197-12.145-12.482-2.923-5.285-4.385-11.414-4.385-18.386V57.3471h15.181v45.8799c0 4.385.731 8.208 2.193 11.469 1.574 3.149 3.823 5.567 6.747 7.253 2.923 1.687 6.353 2.531 10.289 2.531 5.96 0 10.627-1.856 14-5.567 3.374-3.823 5.061-9.052 5.061-15.686V57.3471h15.181v46.5539c0 6.972-1.462 13.101-4.386 18.386-2.924 5.285-6.972 9.446-12.145 12.482-5.06 2.923-11.02 4.385-17.88 4.385ZM255.777 42.7764c1.945 1.944 4.435 2.916 7.473 2.916 3.037 0 5.528-.972 7.472-2.916 1.944-2.0655 2.916-4.617 2.916-7.6545 0-2.916-.972-5.346-2.916-7.29-1.944-2.0655-4.435-3.0983-7.472-3.0983-3.038 0-5.528 1.0328-7.473 3.0983-1.944 1.944-2.916 4.374-2.916 7.29 0 3.0375.972 5.589 2.916 7.6545Z" fill="#DB4D2C"/><path fill-rule="evenodd" clip-rule="evenodd" d="M301.686 130.906c5.848 3.486 12.426 5.229 19.736 5.229 6.185 0 11.695-1.237 16.53-3.711 4.283-2.191 7.772-5.132 10.466-8.822v10.661c0 7.309-2.417 13.1-7.253 17.373-4.723 4.386-11.189 6.579-19.398 6.579-6.185 0-11.526-1.125-16.024-3.374-4.498-2.136-8.378-5.285-11.639-9.446l-9.783 9.952c3.823 5.51 8.884 9.783 15.181 12.819 6.41 3.037 13.719 4.555 21.928 4.555 8.321 0 15.631-1.631 21.928-4.892 6.41-3.261 11.358-7.759 14.844-13.494 3.598-5.735 5.397-12.426 5.397-20.072V57.3473h-15.181v10.7618c-2.671-3.6682-6.103-6.5752-10.297-8.7208-4.836-2.4739-10.402-3.7108-16.699-3.7108-7.31 0-13.888 1.7992-19.736 5.3976-5.735 3.4859-10.289 8.265-13.662 14.3373-3.374 5.9598-5.061 12.763-5.061 20.4096 0 7.647 1.687 14.562 5.061 20.747 3.373 6.072 7.927 10.851 13.662 14.337Zm22.772-9.108c4.948 0 9.277-1.068 12.988-3.205 3.824-2.136 6.747-5.116 8.771-8.94 2.025-3.935 3.037-8.49 3.037-13.6623 0-5.1727-1.069-9.6707-3.205-13.494-2.024-3.9357-4.892-6.9719-8.603-9.1084-3.711-2.249-8.096-3.3735-13.157-3.3735-5.06 0-9.502 1.1245-13.325 3.3735-3.824 2.1365-6.86 5.1727-9.109 9.1084-2.136 3.8233-3.205 8.2651-3.205 13.3253 0 5.06 1.069 9.558 3.205 13.494 2.249 3.936 5.285 7.028 9.109 9.277 3.936 2.137 8.434 3.205 13.494 3.205Z" fill="#DB4D2C"/><path d="M637.951 89.075v48.41h15.35V86.0389c0-6.2972-1.406-11.6948-4.217-16.1928-2.699-4.498-6.353-7.9839-10.964-10.4578-4.61-2.4739-9.839-3.7108-15.687-3.7108-5.623 0-10.795 1.2931-15.518 3.8795-4.746 2.486-8.843 6.1756-11.776 10.6651-2.648-4.5857-6.334-8.321-11.017-10.8338-4.498-2.4739-9.558-3.7108-15.18-3.7108-5.736 0-10.908 1.2931-15.519 3.8795-3.372 1.8092-6.232 4.1596-8.581 7.0513v-9.2441h-15.181v80.1208h15.181V87.8777c.144-3.498 1.037-6.5286 2.677-9.0918 1.8-2.8113 4.161-5.004 7.085-6.5783 2.924-1.5743 6.241-2.3615 9.952-2.3615 5.51 0 10.064 1.743 13.663 5.2289 3.711 3.3735 5.566 8.0402 5.566 14v48.41h15.181V88.899l.021.0073c0-3.9357.899-7.3092 2.699-10.1204 1.799-2.8113 4.16-5.004 7.084-6.5783 3.036-1.5743 6.41-2.3615 10.121-2.3615 5.397 0 9.896 1.743 13.494 5.2289 3.711 3.3735 5.566 8.0402 5.566 14Z" fill="#DB4D2C"/></svg>