<svg width="512" height="512" viewBox="0 0 512 512" fill="none" xmlns="http://www.w3.org/2000/svg">
<path d="M360.08 265.494C374.136 256.596 386.305 244.258 395.2 228.852C424.56 177.998 407.137 112.972 356.284 83.6124C305.429 54.2522 240.404 71.6758 211.043 122.529C202.149 137.935 197.548 154.642 196.869 171.264C229.663 165.149 264.717 170.26 295.872 188.247C327.026 206.233 348.979 234.037 360.08 265.494ZM198.667 195.541C166.193 202.338 136.64 222.404 118.745 253.398C85.3814 311.186 105.181 385.08 162.969 418.443C220.757 451.807 294.65 432.007 328.013 374.218C345.907 343.225 348.51 307.598 338.158 276.076C309.974 285.899 277.837 283.863 249.96 267.768C222.083 251.674 204.252 224.861 198.667 195.541Z" fill="#DB4D2C"/>
</svg>
