<svg width="32" height="32" viewBox="0 0 32 32" fill="none" xmlns="http://www.w3.org/2000/svg">
<g clip-path="url(#clip0_317_150)">
<path d="M25.1171 17.1821C26.3484 16.4026 27.4144 15.3218 28.1936 13.9722C30.7655 9.5175 29.2393 3.82128 24.7846 1.24937C20.3298 -1.32257 14.6336 0.203729 12.0616 4.65844C11.2825 6.00799 10.8794 7.4715 10.82 8.92754C13.6927 8.39191 16.7634 8.83961 19.4925 10.4152C22.2216 11.9909 24.1447 14.4265 25.1171 17.1821ZM10.9774 11.0542C8.13273 11.6496 5.5439 13.4074 3.97637 16.1224C1.05373 21.1846 2.78815 27.6577 7.85033 30.5803C12.9125 33.5029 19.3855 31.7684 22.3081 26.7062C23.8756 23.9912 24.1036 20.8703 23.1968 18.109C20.7278 18.9695 17.9127 18.7912 15.4707 17.3813C13.0287 15.9714 11.4667 13.6226 10.9774 11.0542Z" fill="#DB4D2C"/>
</g>
<defs>
<clipPath id="clip0_317_150">
<rect width="32" height="32" fill="white"/>
</clipPath>
</defs>
</svg>
