<svg width="982" height="552" viewBox="0 0 982 552" fill="none" xmlns="http://www.w3.org/2000/svg">
<rect width="981.333" height="552" transform="translate(0.333496)" fill="#FAF9F5"/>
<path d="M280.571 270.999C286.388 267.317 291.424 262.211 295.105 255.835C307.255 234.791 300.045 207.881 279 195.73C257.955 183.58 231.045 190.791 218.895 211.835C215.214 218.211 213.31 225.125 213.029 232.003C226.6 229.473 241.107 231.588 253.999 239.032C266.892 246.475 275.977 257.981 280.571 270.999Z" fill="#DB4D2C"/>
<path d="M213.773 242.05C200.334 244.863 188.104 253.167 180.698 265.994C166.891 289.908 175.085 320.488 199 334.295C222.914 348.102 253.494 339.908 267.301 315.994C274.706 303.167 275.783 288.423 271.499 275.379C259.835 279.444 246.536 278.601 235 271.941C223.463 265.28 216.084 254.184 213.773 242.05Z" fill="#DB4D2C"/>
<path d="M375.29 328.605C366.069 328.605 358.197 326.919 351.675 323.545C345.153 320.172 339.361 315.28 334.301 308.871L345.096 298.075C348.807 303.248 353.08 307.184 357.916 309.883C362.751 312.469 368.711 313.762 375.796 313.762C382.768 313.762 388.334 312.244 392.495 309.208C396.768 306.172 398.905 302.011 398.905 296.726C398.905 292.34 397.893 288.798 395.868 286.099C393.844 283.401 391.089 281.208 387.603 279.521C384.23 277.722 380.519 276.148 376.47 274.798C372.422 273.336 368.374 271.818 364.326 270.244C360.277 268.557 356.566 266.533 353.193 264.172C349.819 261.698 347.064 258.493 344.928 254.557C342.904 250.622 341.892 245.674 341.892 239.714C341.892 233.079 343.466 227.457 346.614 222.847C349.876 218.124 354.261 214.525 359.771 212.051C365.394 209.465 371.691 208.172 378.663 208.172C386.31 208.172 393.17 209.69 399.242 212.726C405.314 215.65 410.262 219.529 414.086 224.365L403.29 235.16C399.804 231.112 396.037 228.075 391.989 226.051C388.053 224.027 383.499 223.015 378.326 223.015C372.029 223.015 367.024 224.421 363.314 227.232C359.603 229.931 357.747 233.754 357.747 238.702C357.747 242.638 358.759 245.842 360.783 248.316C362.92 250.678 365.675 252.702 369.049 254.389C372.422 256.075 376.133 257.65 380.181 259.112C384.342 260.461 388.447 261.979 392.495 263.666C396.543 265.352 400.254 267.489 403.628 270.075C407.001 272.662 409.7 276.035 411.724 280.196C413.861 284.244 414.929 289.36 414.929 295.545C414.929 305.891 411.33 313.987 404.134 319.834C397.049 325.682 387.434 328.605 375.29 328.605Z" fill="#DB4D2C"/>
<path d="M428.708 326.919V246.798H443.889V326.919H428.708Z" fill="#DB4D2C"/>
<path d="M555.509 321.858C558.882 323.995 562.537 325.682 566.473 326.919C570.521 328.043 574.794 328.605 579.292 328.605C588.288 328.605 595.429 326.413 600.714 322.027C606.112 317.642 608.811 311.682 608.811 304.148C608.811 299.2 607.742 295.208 605.606 292.172C603.582 289.136 600.939 286.718 597.678 284.919C594.417 283.12 590.987 281.714 587.389 280.702C583.79 279.577 580.304 278.509 576.931 277.497C573.669 276.485 571.027 275.248 569.003 273.786C566.979 272.324 565.967 270.244 565.967 267.545C565.967 264.846 567.091 262.766 569.34 261.304C571.702 259.73 575.075 258.943 579.461 258.943C583.621 258.943 587.332 259.73 590.594 261.304C593.967 262.879 596.778 265.128 599.027 268.051L608.811 258.268C605.662 253.883 601.614 250.622 596.666 248.485C591.83 246.236 586.264 245.112 579.967 245.112C574.007 245.112 568.89 246.067 564.617 247.979C560.456 249.891 557.195 252.646 554.834 256.244C552.472 259.73 551.292 263.891 551.292 268.726C551.292 273.561 552.304 277.441 554.328 280.365C556.464 283.288 559.163 285.593 562.424 287.28C565.685 288.967 569.115 290.373 572.714 291.497C576.425 292.509 579.911 293.577 583.172 294.702C586.433 295.714 589.075 297.063 591.1 298.75C593.236 300.324 594.304 302.573 594.304 305.497C594.304 308.421 593.011 310.726 590.425 312.413C587.838 313.987 584.184 314.774 579.461 314.774C574.738 314.774 570.465 313.931 566.641 312.244C562.818 310.445 559.444 307.746 556.521 304.148L546.737 313.931C549.211 316.967 552.135 319.609 555.509 321.858Z" fill="#DB4D2C"/>
<path d="M652.963 328.605C646.441 328.605 640.537 327.144 635.252 324.22C630.079 321.184 626.031 317.023 623.107 311.738C620.184 306.453 618.722 300.324 618.722 293.352V246.798H633.903V292.678C633.903 297.063 634.634 300.887 636.096 304.148C637.67 307.296 639.919 309.714 642.843 311.401C645.766 313.087 649.196 313.931 653.132 313.931C659.092 313.931 663.759 312.075 667.132 308.365C670.506 304.541 672.193 299.312 672.193 292.678V246.798H687.374V293.352C687.374 300.324 685.912 306.453 682.988 311.738C680.064 317.023 676.016 321.184 670.843 324.22C665.783 327.144 659.823 328.605 652.963 328.605Z" fill="#DB4D2C"/>
<path d="M428.777 232.228C430.722 234.172 433.212 235.144 436.25 235.144C439.287 235.144 441.778 234.172 443.722 232.228C445.666 230.162 446.638 227.611 446.638 224.573C446.638 221.657 445.666 219.227 443.722 217.283C441.778 215.218 439.287 214.185 436.25 214.185C433.212 214.185 430.722 215.218 428.777 217.283C426.833 219.227 425.861 221.657 425.861 224.573C425.861 227.611 426.833 230.162 428.777 232.228Z" fill="#DB4D2C"/>
<path fill-rule="evenodd" clip-rule="evenodd" d="M474.686 320.357C480.534 323.843 487.112 325.586 494.422 325.586C500.607 325.586 506.117 324.349 510.952 321.876C515.235 319.684 518.724 316.744 521.418 313.053V323.714C521.418 331.023 519.001 336.814 514.165 341.088C509.442 345.473 502.976 347.666 494.767 347.666C488.582 347.666 483.241 346.541 478.743 344.292C474.245 342.156 470.365 339.007 467.104 334.847L457.321 344.798C461.144 350.308 466.205 354.581 472.502 357.618C478.912 360.654 486.221 362.172 494.43 362.172C502.751 362.172 510.061 360.541 516.358 357.28C522.768 354.019 527.716 349.521 531.202 343.786C534.8 338.051 536.599 331.361 536.599 323.714V246.798H521.418V257.56C518.747 253.892 515.315 250.985 511.121 248.839C506.285 246.366 500.719 245.129 494.422 245.129C487.112 245.129 480.534 246.928 474.686 250.526C468.951 254.012 464.397 258.791 461.024 264.864C457.65 270.823 455.963 277.627 455.963 285.273C455.963 292.92 457.65 299.835 461.024 306.02C464.397 312.092 468.951 316.872 474.686 320.357ZM497.458 311.249C502.406 311.249 506.735 310.181 510.446 308.044C514.27 305.908 517.193 302.928 519.217 299.104C521.242 295.169 522.254 290.615 522.254 285.442C522.254 280.269 521.185 275.771 519.049 271.948C517.025 268.012 514.157 264.976 510.446 262.839C506.735 260.59 502.35 259.466 497.289 259.466C492.229 259.466 487.787 260.59 483.964 262.839C480.14 264.976 477.104 268.012 474.855 271.948C472.719 275.771 471.65 280.213 471.65 285.273C471.65 290.333 472.719 294.831 474.855 298.767C477.104 302.703 480.14 305.795 483.964 308.044C487.9 310.181 492.398 311.249 497.458 311.249Z" fill="#DB4D2C"/>
<path d="M810.951 278.526V326.936H826.301V275.49C826.301 269.193 824.895 263.795 822.084 259.297C819.385 254.799 815.731 251.313 811.12 248.839C806.51 246.366 801.281 245.129 795.433 245.129C789.81 245.129 784.638 246.422 779.915 249.008C775.169 251.494 771.072 255.184 768.139 259.673C765.491 255.088 761.805 251.352 757.122 248.839C752.624 246.366 747.564 245.129 741.942 245.129C736.206 245.129 731.034 246.422 726.423 249.008C723.051 250.817 720.191 253.168 717.842 256.059V246.815H702.661V326.936H717.842V277.329C717.986 273.831 718.879 270.8 720.519 268.237C722.319 265.426 724.68 263.233 727.604 261.659C730.528 260.084 733.845 259.297 737.556 259.297C743.066 259.297 747.62 261.04 751.219 264.526C754.93 267.9 756.785 272.566 756.785 278.526V326.936H771.966V278.35L771.987 278.358C771.987 274.422 772.886 271.048 774.686 268.237C776.485 265.426 778.846 263.233 781.77 261.659C784.806 260.084 788.18 259.297 791.891 259.297C797.288 259.297 801.787 261.04 805.385 264.526C809.096 267.9 810.951 272.566 810.951 278.526Z" fill="#DB4D2C"/>
</svg>
