<svg width="982" height="552" viewBox="0 0 982 552" fill="none" xmlns="http://www.w3.org/2000/svg">
<rect width="981.333" height="552" fill="#581303"/>
<path d="M280.238 270.999C286.055 267.317 291.09 262.211 294.771 255.835C306.922 234.791 299.711 207.881 278.666 195.73C257.621 183.58 230.711 190.791 218.561 211.835C214.88 218.211 212.976 225.125 212.695 232.003C226.266 229.473 240.773 231.588 253.666 239.032C266.559 246.475 275.644 257.981 280.238 270.999Z" fill="#FAF9F5"/>
<path d="M213.439 242.05C200 244.863 187.77 253.167 180.365 265.994C166.558 289.908 174.751 320.488 198.666 334.295C222.581 348.102 253.16 339.908 266.967 315.994C274.373 303.167 275.449 288.423 271.166 275.379C259.502 279.444 246.203 278.601 234.666 271.941C223.13 265.28 215.751 254.184 213.439 242.05Z" fill="#FAF9F5"/>
<path d="M374.956 328.605C365.735 328.605 357.864 326.919 351.341 323.545C344.819 320.172 339.028 315.28 333.968 308.871L344.763 298.075C348.474 303.248 352.747 307.184 357.582 309.883C362.418 312.469 368.378 313.762 375.462 313.762C382.434 313.762 388.001 312.244 392.161 309.208C396.434 306.172 398.571 302.011 398.571 296.726C398.571 292.34 397.559 288.798 395.535 286.099C393.511 283.401 390.756 281.208 387.27 279.521C383.896 277.722 380.185 276.148 376.137 274.798C372.089 273.336 368.04 271.818 363.992 270.244C359.944 268.557 356.233 266.533 352.859 264.172C349.486 261.698 346.731 258.493 344.594 254.557C342.57 250.622 341.558 245.674 341.558 239.714C341.558 233.079 343.132 227.457 346.281 222.847C349.542 218.124 353.928 214.525 359.438 212.051C365.06 209.465 371.358 208.172 378.33 208.172C385.976 208.172 392.836 209.69 398.908 212.726C404.981 215.65 409.929 219.529 413.752 224.365L402.957 235.16C399.471 231.112 395.704 228.075 391.655 226.051C387.719 224.027 383.165 223.015 377.992 223.015C371.695 223.015 366.691 224.421 362.98 227.232C359.269 229.931 357.414 233.754 357.414 238.702C357.414 242.638 358.426 245.842 360.45 248.316C362.587 250.678 365.342 252.702 368.715 254.389C372.089 256.075 375.8 257.65 379.848 259.112C384.009 260.461 388.113 261.979 392.161 263.666C396.21 265.352 399.92 267.489 403.294 270.075C406.668 272.662 409.366 276.035 411.391 280.196C413.527 284.244 414.595 289.36 414.595 295.545C414.595 305.891 410.997 313.987 403.8 319.834C396.716 325.682 387.101 328.605 374.956 328.605Z" fill="#FAF9F5"/>
<path d="M428.374 326.919V246.798H443.555V326.919H428.374Z" fill="#FAF9F5"/>
<path d="M555.175 321.858C558.549 323.995 562.203 325.682 566.139 326.919C570.187 328.043 574.461 328.605 578.959 328.605C587.955 328.605 595.095 326.413 600.381 322.027C605.778 317.642 608.477 311.682 608.477 304.148C608.477 299.2 607.409 295.208 605.272 292.172C603.248 289.136 600.606 286.718 597.344 284.919C594.083 283.12 590.654 281.714 587.055 280.702C583.457 279.577 579.971 278.509 576.597 277.497C573.336 276.485 570.693 275.248 568.669 273.786C566.645 272.324 565.633 270.244 565.633 267.545C565.633 264.846 566.758 262.766 569.007 261.304C571.368 259.73 574.742 258.943 579.127 258.943C583.288 258.943 586.999 259.73 590.26 261.304C593.634 262.879 596.445 265.128 598.694 268.051L608.477 258.268C605.329 253.883 601.28 250.622 596.332 248.485C591.497 246.236 585.931 245.112 579.633 245.112C573.673 245.112 568.557 246.067 564.284 247.979C560.123 249.891 556.862 252.646 554.5 256.244C552.139 259.73 550.958 263.891 550.958 268.726C550.958 273.561 551.97 277.441 553.994 280.365C556.131 283.288 558.83 285.593 562.091 287.28C565.352 288.967 568.782 290.373 572.38 291.497C576.091 292.509 579.577 293.577 582.838 294.702C586.099 295.714 588.742 297.063 590.766 298.75C592.903 300.324 593.971 302.573 593.971 305.497C593.971 308.421 592.678 310.726 590.091 312.413C587.505 313.987 583.85 314.774 579.127 314.774C574.404 314.774 570.131 313.931 566.308 312.244C562.484 310.445 559.111 307.746 556.187 304.148L546.404 313.931C548.878 316.967 551.802 319.609 555.175 321.858Z" fill="#FAF9F5"/>
<path d="M652.63 328.605C646.108 328.605 640.204 327.144 634.919 324.22C629.746 321.184 625.698 317.023 622.774 311.738C619.85 306.453 618.388 300.324 618.388 293.352V246.798H633.569V292.678C633.569 297.063 634.3 300.887 635.762 304.148C637.336 307.296 639.586 309.714 642.509 311.401C645.433 313.087 648.863 313.931 652.799 313.931C658.759 313.931 663.425 312.075 666.799 308.365C670.172 304.541 671.859 299.312 671.859 292.678V246.798H687.04V293.352C687.04 300.324 685.578 306.453 682.655 311.738C679.731 317.023 675.683 321.184 670.51 324.22C665.449 327.144 659.489 328.605 652.63 328.605Z" fill="#FAF9F5"/>
<path d="M428.444 232.228C430.388 234.172 432.879 235.144 435.916 235.144C438.954 235.144 441.445 234.172 443.389 232.228C445.333 230.162 446.305 227.611 446.305 224.573C446.305 221.657 445.333 219.227 443.389 217.283C441.445 215.218 438.954 214.185 435.916 214.185C432.879 214.185 430.388 215.218 428.444 217.283C426.5 219.227 425.528 221.657 425.528 224.573C425.528 227.611 426.5 230.162 428.444 232.228Z" fill="#FAF9F5"/>
<path fill-rule="evenodd" clip-rule="evenodd" d="M474.353 320.357C480.201 323.843 486.779 325.586 494.088 325.586C500.273 325.586 505.783 324.349 510.619 321.876C514.901 319.684 518.39 316.744 521.085 313.053V323.714C521.085 331.023 518.667 336.814 513.832 341.088C509.109 345.473 502.643 347.666 494.434 347.666C488.249 347.666 482.908 346.541 478.409 344.292C473.911 342.156 470.032 339.007 466.771 334.847L456.987 344.798C460.811 350.308 465.871 354.581 472.168 357.618C478.578 360.654 485.888 362.172 494.096 362.172C502.418 362.172 509.727 360.541 516.025 357.28C522.434 354.019 527.382 349.521 530.868 343.786C534.467 338.051 536.266 331.361 536.266 323.714V246.798H521.085V257.56C518.414 253.892 514.981 250.985 510.787 248.839C505.952 246.366 500.386 245.129 494.088 245.129C486.779 245.129 480.201 246.928 474.353 250.526C468.618 254.012 464.064 258.791 460.69 264.864C457.317 270.823 455.63 277.627 455.63 285.273C455.63 292.92 457.317 299.835 460.69 306.02C464.064 312.092 468.618 316.872 474.353 320.357ZM497.124 311.249C502.072 311.249 506.402 310.181 510.113 308.044C513.936 305.908 516.86 302.928 518.884 299.104C520.908 295.169 521.92 290.615 521.92 285.442C521.92 280.269 520.852 275.771 518.715 271.948C516.691 268.012 513.824 264.976 510.113 262.839C506.402 260.59 502.016 259.466 496.956 259.466C491.895 259.466 487.454 260.59 483.63 262.839C479.807 264.976 476.771 268.012 474.522 271.948C472.385 275.771 471.317 280.213 471.317 285.273C471.317 290.333 472.385 294.831 474.522 298.767C476.771 302.703 479.807 305.795 483.63 308.044C487.566 310.181 492.064 311.249 497.124 311.249Z" fill="#FAF9F5"/>
<path d="M810.618 278.526V326.936H825.968V275.49C825.968 269.193 824.562 263.795 821.751 259.297C819.052 254.799 815.397 251.313 810.787 248.839C806.176 246.366 800.947 245.129 795.1 245.129C789.477 245.129 784.304 246.422 779.581 249.008C774.835 251.494 770.738 255.184 767.806 259.673C765.158 255.088 761.472 251.352 756.789 248.839C752.291 246.366 747.231 245.129 741.608 245.129C735.873 245.129 730.7 246.422 726.09 249.008C722.718 250.817 719.857 253.168 717.508 256.059V246.815H702.327V326.936H717.508V277.329C717.653 273.831 718.545 270.8 720.186 268.237C721.985 265.426 724.347 263.233 727.27 261.659C730.194 260.084 733.511 259.297 737.222 259.297C742.733 259.297 747.287 261.04 750.885 264.526C754.596 267.9 756.452 272.566 756.452 278.526V326.936H771.633V278.35L771.653 278.358C771.653 274.422 772.553 271.048 774.352 268.237C776.151 265.426 778.513 263.233 781.437 261.659C784.473 260.084 787.846 259.297 791.557 259.297C796.955 259.297 801.453 261.04 805.052 264.526C808.762 267.9 810.618 272.566 810.618 278.526Z" fill="#FAF9F5"/>
</svg>
